name Walk7.mot
datacolumns 19
datarows 20
range 1.65000000 1.74500000
endheader

                time	   L_ground_force_vx	   L_ground_force_vy	   L_ground_force_vz	   L_ground_force_px	   L_ground_force_py	   L_ground_force_pz	   R_ground_force_vx	   R_ground_force_vy	   R_ground_force_vz	   R_ground_force_px	   R_ground_force_py	   R_ground_force_pz	   L_ground_torque_x	   L_ground_torque_y	   L_ground_torque_z	   R_ground_torque_x	   R_ground_torque_y	   R_ground_torque_z	
          1.65000000	         33.88580175	        961.78290941	         74.75111950	         -0.15616990	          0.00000000	         -0.07076233	         -0.02656742	          0.37821401	          0.02363437	          0.00034755	          0.00000000	          0.00008662	          0.00000000	         -2.51379486	          0.00000000	          0.00000000	          0.00305275	          0.00000000	
          1.65500000	         37.94688463	        972.30302301	         75.82594487	         -0.15533020	          0.00000000	         -0.07084127	         -0.03952052	          0.51067735	          0.03163395	          0.00043404	          0.00000000	          0.00010764	          0.00000000	         -2.63014039	          0.00000000	          0.00000000	          0.00495997	          0.00000000	
          1.66000000	         42.24970289	        982.79615992	         76.83813106	         -0.15451283	          0.00000000	         -0.07091034	         -0.05484535	          0.65425713	          0.04020698	          0.00051537	          0.00000000	          0.00012714	          0.00000000	         -2.74386343	          0.00000000	          0.00000000	          0.00732234	          0.00000000	
          1.66500000	         46.82830071	        993.17906695	         77.77771115	         -0.15371832	          0.00000000	         -0.07096948	         -0.07197860	          0.79746425	          0.04861694	          0.00057865	          0.00000000	          0.00014188	          0.00000000	         -2.85341876	          0.00000000	          0.00000000	          0.01010312	          0.00000000	
          1.67000000	         51.69855786	       1003.36264271	         78.64259182	         -0.15294581	          0.00000000	         -0.07101806	         -0.08981885	          0.92242879	          0.05573543	          0.00060596	          0.00000000	          0.00014736	          0.00000000	         -2.95691629	          0.00000000	          0.00000000	          0.01319342	          0.00000000	
          1.67500000	         56.85690481	       1013.25809412	         79.43749916	         -0.15219363	          0.00000000	         -0.07105502	         -0.10656140	          1.00353460	          0.05996211	          0.00057381	          0.00000000	          0.00013774	          0.00000000	         -3.05282592	          0.00000000	          0.00000000	          0.01638525	          0.00000000	
          1.68000000	         62.28378634	       1022.78174183	         80.17192570	         -0.15145934	          0.00000000	         -0.07107905	         -0.11952738	          1.00624534	          0.05915809	          0.00045291	          0.00000000	          0.00010574	          0.00000000	         -3.14041473	          0.00000000	          0.00000000	          0.01934176	          0.00000000	
          1.68500000	         67.95022343	       1031.85656246	         80.85589330	         -0.15074007	          0.00000000	         -0.07108914	         -0.12500518	          0.88637412	          0.05060847	          0.00020852	          0.00000000	          0.00004281	          0.00000000	         -3.21921907	          0.00000000	          0.00000000	          0.02156669	          0.00000000	
          1.69000000	         73.82461172	       1040.41237998	         81.49733139	         -0.15003282	          0.00000000	         -0.07108488	         -0.11813050	          0.59013455	          0.03103492	         -0.00019829	          0.00000000	         -0.00006061	          0.00000000	         -3.28844505	          0.00000000	          0.00000000	          0.02237644	          0.00000000	
          1.69500000	         79.87720007	       1048.38425469	         82.10008969	         -0.14933416	          0.00000000	         -0.07106638	         -0.09284145	          0.05540442	         -0.00331515	         -0.00080820	          0.00000000	         -0.00021441	          0.00000000	         -3.34685917	          0.00000000	          0.00000000	          0.02087950	          0.00000000	
          1.70000000	         86.08225358	       1055.71239070	         82.66351536	         -0.14864024	          0.00000000	         -0.07103435	         -0.04195628	         -0.78527583	         -0.05647111	         -0.00165961	          0.00000000	         -0.00042778	          0.00000000	         -3.39316269	          0.00000000	          0.00000000	          0.01597017	          0.00000000	
          1.70500000	         92.41867211	       1062.34535682	         83.18371407	         -0.14794793	          0.00000000	         -0.07098937	          0.04256743	         -1.99936898	         -0.13239695	         -0.00278261	          0.00000000	         -0.00070777	          0.00000000	         -3.42651530	          0.00000000	          0.00000000	          0.00634509	          0.00000000	
          1.71000000	         98.86849268	       1068.24048133	         83.65606367	         -0.14725513	          0.00000000	         -0.07093179	          0.16912222	         -3.64602288	         -0.23446591	         -0.00419061	          0.00000000	         -0.00105708	          0.00000000	         -3.44671649	          0.00000000	          0.00000000	         -0.00944660	          0.00000000	
          1.71500000	        105.41536577	       1073.35972340	         84.07604567	         -0.14656013	          0.00000000	         -0.07086232	          0.34561167	         -5.76412455	         -0.36471395	         -0.00586941	          0.00000000	         -0.00147142	          0.00000000	         -3.45403383	          0.00000000	          0.00000000	         -0.03290680	          0.00000000	
          1.72000000	        112.04300370	       1077.66925147	         84.44031996	         -0.14586176	          0.00000000	         -0.07078241	          0.57820211	         -8.35617090	         -0.52284062	         -0.00776342	          0.00000000	         -0.00193606	          0.00000000	         -3.44913609	          0.00000000	          0.00000000	         -0.06543182	          0.00000000	
          1.72500000	        118.73359151	       1081.13597451	         84.74761098	         -0.14515860	          0.00000000	         -0.07069405	          0.86959038	        -11.36760488	         -0.70493921	         -0.00975946	          0.00000000	         -0.00242185	          0.00000000	         -3.43270190	          0.00000000	          0.00000000	         -0.10808110	          0.00000000	
          1.73000000	        125.46498456	       1083.71900265	         84.99804606	         -0.14444816	          0.00000000	         -0.07059897	          1.21673042	        -14.66162904	         -0.90196127	         -0.01166843	          0.00000000	         -0.00288070	          0.00000000	         -3.40551015	          0.00000000	          0.00000000	         -0.16125810	          0.00000000	
          1.73500000	        132.20873818	       1085.36692404	         85.18923079	         -0.14372665	          0.00000000	         -0.07049797	          1.60799652	        -17.99007292	         -1.09795631	         -0.01320619	          0.00000000	         -0.00324095	          0.00000000	         -3.36887427	          0.00000000	          0.00000000	         -0.22429357	          0.00000000	
          1.74000000	        138.92909438	       1086.01907561	         85.31291299	         -0.14298952	          0.00000000	         -0.07039072	          2.01981782	        -20.96169961	         -1.26817816	         -0.01397544	          0.00000000	         -0.00340301	          0.00000000	         -3.32494886	          0.00000000	          0.00000000	         -0.29492811	          0.00000000	
          1.74500000	        145.58491249	       1085.60339799	         85.35168575	         -0.14223173	          0.00000000	         -0.07027655	          2.41290335	        -23.01042781	         -1.37721668	         -0.01345144	          0.00000000	         -0.00323604	          0.00000000	         -3.27597827	          0.00000000	          0.00000000	         -0.36870126	          0.00000000	
